# xmcd CD database file
#
# Track frame offsets:
#	150
#	26801
#	55198
#	71328
#	104177
#	116629
#	147752
#	159372
#	174102
#	188209
#	206648
#	219633
#	258811
#
# Disc length: 3528 seconds
#
# Revision: 0
# Processed by: cddbd v1.4PL0 Copyright (c) Steve Scherf et al.
# Submitted via: CDex 1.50
#
DISCID=ba0dc60d
DTITLE=Varios Artists - BBC - Today sing the blues - Jam 4
DYEAR=1900
DGENRE=Blues
TTITLE0=Blues Company - Silent night
TTITLE1=Johnny Winter - Life is hard
TTITLE2=Dr_John - I like Ki Yoka
TTITLE3=Albert King - I'll play the blues for you
TTITLE4=Aretha Franklin - Today i sing the blues
TTITLE5=Junior Wells - I'll take care of you
TTITLE6=Sappier Wallace - Loving sam
TTITLE7=Big Bill Bronzy - Do right blues
TTITLE8="Little" Joe Blue - Little Joe Blue
TTITLE9=Artie White - Warm room
TTITLE10=Mississippi Fred McDowell - You gotta move
TTITLE11=Bather Smith - Play the blues in Paris
TTITLE12=Reklama
EXTD=
EXTT0=
EXTT1=
EXTT2=
EXTT3=
EXTT4=
EXTT5=
EXTT6=
EXTT7=
EXTT8=
EXTT9=
EXTT10=
EXTT11=
EXTT12=
PLAYORDER=
